<svg width="1411" height="251" viewBox="0 0 1411 251" fill="none" xmlns="http://www.w3.org/2000/svg">
<path d="M309.665 27.2813V23.6166C316.43 23.7575 323.196 23.8985 330.103 23.8985C336.445 23.8985 342.788 23.7575 349.131 23.6166V27.2813C341.097 27.2813 336.304 27.986 336.304 37.4297V68.1569H393.248V37.1478C393.248 27.7041 387.751 27.2813 380.422 27.2813V23.6166C387.187 23.7575 393.812 23.8985 400.578 23.8985C407.061 23.8985 413.545 23.6166 419.888 23.6166V27.2813C411.995 27.2813 407.061 27.986 407.061 37.2888V108.469C407.061 117.631 412.136 118.335 419.888 118.335V122C413.263 121.859 406.639 121.718 400.014 121.718C393.389 121.718 386.906 121.859 380.422 122V118.335C388.597 118.335 393.248 117.349 393.248 108.469V73.9359H336.304V108.046C336.304 116.785 339.828 118.335 349.131 118.335V122C342.224 122 335.459 121.718 328.552 121.718C322.209 121.718 315.867 121.859 309.665 122V118.335C318.686 118.335 322.491 116.926 322.491 108.187V37.1478C322.491 26.9994 316.148 27.5632 309.665 27.2813ZM432.853 27.2813V23.6166C439.619 23.7575 441.733 23.8985 447.23 23.8985C457.661 23.8985 460.761 23.6166 466.963 23.6166C484.3 23.6166 500.087 29.9593 500.087 46.4505C500.087 57.1628 491.911 65.3379 477.394 68.8617V69.1436C487.965 68.5798 509.107 75.7682 509.107 95.2194C509.107 110.019 497.127 122 470.769 122C463.721 122 456.815 121.718 449.767 121.718C444.129 121.718 438.491 121.859 432.853 122V118.335C442.861 118.899 445.68 114.53 445.68 109.033V37.2888C445.68 28.6908 441.733 27.2813 432.853 27.2813ZM459.493 28.4089V68.1569H465.131C480.776 68.1569 486.273 60.1227 486.273 46.7324C486.273 34.4698 481.199 28.127 465.977 28.127C463.299 28.127 461.466 28.2679 459.493 28.4089ZM459.493 72.6673V106.495C459.493 112.979 460.198 117.49 472.178 117.49C488.106 117.49 494.449 107.059 494.449 97.1927C494.449 80.7015 485.992 72.6673 468.373 72.6673H459.493ZM527.336 27.2813V23.6166C532.27 23.7575 537.062 23.8985 541.854 23.8985C545.096 23.8985 548.197 23.6166 551.298 23.6166L589.214 102.69L610.356 59.6999C615.43 49.4105 621.773 36.1612 627.27 23.6166C630.935 23.7575 634.459 23.8985 638.123 23.8985C642.493 23.8985 646.862 23.6166 651.232 23.6166V27.2813C641.224 27.2813 638.687 28.5498 638.687 37.9935C638.687 58.9951 640.379 96.6289 640.66 107.341C640.942 116.362 644.043 118.335 655.883 118.335V122C648.272 122 640.66 121.718 633.049 121.718C626.002 121.718 619.095 121.859 612.048 122V118.335C617.122 118.476 620.645 118.194 622.901 117.067C625.861 115.516 626.565 111.852 626.565 107.2L625.579 40.2487H625.297L593.16 106.918C592.174 108.892 589.495 114.53 586.535 123.269H583.716C580.193 115.375 576.951 108.328 573.709 101.562C564.124 81.4063 554.399 62.5189 544.814 43.3496H544.532C544.109 63.2237 543.264 96.488 543.264 103.254C543.264 110.301 543.968 113.825 546.224 115.939C548.197 117.771 551.58 118.335 557.641 118.335V122C552.003 122 546.365 121.718 540.727 121.718C534.243 121.718 527.9 121.859 521.416 122V118.335C532.41 118.335 537.626 114.812 538.189 97.1927C538.612 82.3929 539.74 58.0085 539.74 40.1078C539.74 29.3955 537.344 27.4222 527.336 27.2813ZM718.51 27.2813V23.6166C724.994 23.7575 731.478 23.8985 737.82 23.8985C744.586 23.8985 751.352 23.7575 757.976 23.6166V27.2813C748.956 27.2813 745.15 28.6908 745.15 37.5707V110.865C745.15 127.356 742.895 133.276 738.666 140.324C734.297 147.653 724.994 152.022 716.678 152.022C707.657 152.022 702.16 148.217 702.16 142.579C702.16 138.491 705.12 136.377 707.657 136.377C710.899 136.377 712.59 138.491 712.59 141.451C712.59 144.552 715.268 147.512 720.202 147.512C727.672 147.512 731.337 139.901 731.337 121.718V37.1478C731.337 27.7041 725.981 27.4222 718.51 27.2813ZM767.515 27.2813V23.6166C773.858 23.7575 780.2 23.8985 786.543 23.8985C793.309 23.8985 800.215 23.7575 806.981 23.6166V27.2813C796.973 27.1403 794.154 29.5365 794.154 37.7116V85.7757C794.154 106.918 803.316 118.335 821.64 118.335C838.554 118.335 847.293 108.751 847.293 90.9909V49.4105C847.293 27.7041 846.306 27.5632 833.902 27.2813V23.6166C839.4 23.7575 844.897 23.8985 850.394 23.8985C855.609 23.8985 860.683 23.6166 865.898 23.6166V27.2813C855.891 27.2813 854.763 31.5098 854.763 45.6048V90.709C854.763 110.16 842.219 124.114 817.975 124.114C793.45 124.114 780.341 111.429 780.341 88.3128V37.5707C780.341 29.6774 777.522 27.1403 767.515 27.2813ZM876.847 27.2813V23.6166C883.613 23.7575 890.519 23.8985 897.708 23.8985C905.319 23.8985 906.024 23.6166 917.582 23.6166C938.865 23.6166 949.719 34.1879 949.719 48.5648C949.719 59.1361 942.389 68.8617 929.704 72.6673L946.618 97.8975C949.437 101.985 952.256 106.073 955.357 109.455C960.854 115.657 965.223 118.476 971.284 118.335V122C967.619 122 963.955 121.718 960.29 121.718C956.343 121.718 952.538 121.859 948.732 122C942.107 114.812 936.751 107.2 932.1 100.294C926.603 92.1185 921.529 83.6615 916.313 75.4863H903.487V108.328C903.487 116.926 907.574 118.476 916.313 118.335V122C909.83 122 903.346 121.718 896.721 121.718C890.097 121.718 883.472 121.859 876.847 122V118.335C886.996 118.899 889.674 114.671 889.674 108.328V37.7116C889.674 29.3955 886.714 27.1403 876.847 27.2813ZM903.487 28.9727V70.2712C905.601 70.694 907.856 70.9759 911.38 70.9759C926.18 70.9759 935.06 61.5322 935.06 49.4105C935.06 35.4564 926.885 28.127 911.803 28.127C908.984 28.127 907.433 28.4089 903.487 28.9727ZM981.387 27.2813V23.6166C987.871 23.7575 994.214 23.8985 1000.7 23.8985C1007.46 23.8985 1014.23 23.7575 1020.85 23.6166V27.2813C1012.11 27.2813 1008.03 28.4089 1008.03 37.5707V107.623C1008.03 115.798 1010.42 118.476 1020.85 118.335V122C1014.23 122 1007.75 121.718 1001.12 121.718C994.496 121.718 987.871 121.859 981.387 122V118.335C990.549 118.335 994.214 116.926 994.214 107.905V37.7116C994.214 29.3955 991.254 27.1403 981.387 27.2813ZM1068.22 21.5023C1073.71 21.5023 1079.92 22.7709 1085.41 23.6166L1087.67 41.6582H1084.43C1082.88 31.6507 1076.25 26.0127 1066.24 26.0127C1055.53 26.0127 1049.33 33.765 1049.33 44.0544C1049.33 70.4121 1092.74 62.9417 1092.74 95.5013C1092.74 113.684 1076.53 124.114 1059.62 124.114C1052.57 124.114 1044.96 122.564 1038.05 119.322L1035.23 98.7432H1038.48C1041.3 110.724 1049.75 119.604 1060.46 119.604C1071.46 119.604 1079.78 111.852 1079.78 100.857C1079.78 74.6406 1038.05 82.3929 1038.05 49.1286C1038.05 31.7917 1050.03 21.5023 1068.22 21.5023ZM1105.71 42.0811L1107.26 19.67H1110.08C1111.49 23.4756 1115.86 23.6166 1118.54 23.6166H1183.37C1187.46 23.6166 1191.55 22.489 1192.11 19.67H1195.07L1193.8 42.0811H1190C1189.43 35.4564 1190.84 29.3955 1178.58 29.3955H1157.3V108.469C1157.3 118.053 1162.94 118.194 1170.12 118.335V122C1163.36 122 1156.45 121.718 1149.55 121.718C1143.2 121.718 1137 121.859 1130.66 122V118.335C1136.58 118.053 1143.48 118.899 1143.48 108.61V29.3955H1125.16C1113.32 29.3955 1111.77 31.9326 1109.37 42.0811H1105.71ZM1206.07 27.2813V23.6166C1214.95 23.8985 1231.3 23.8985 1243.98 23.8985C1254.27 23.8985 1268.09 23.7575 1275.13 23.6166V44.6182L1272.32 45.3229C1270.34 32.3555 1263.86 28.127 1250.33 28.127H1233.27V68.1569H1252.16C1259.21 68.1569 1263.29 64.4922 1263.72 56.0352H1266.54C1266.25 59.277 1265.97 65.056 1265.97 71.9626C1265.97 75.7682 1266.68 83.2386 1266.54 87.4671H1263.72C1263.58 75.7682 1260.62 73.9359 1251.03 73.9359H1233.27V99.166C1233.27 114.248 1234.4 117.49 1248.35 117.49H1256.39C1261.74 117.49 1264.56 117.067 1266.68 116.644C1273.02 115.093 1277.81 111.711 1282.04 99.8708L1285.42 100.435C1283.17 107.623 1281.2 113.966 1279.65 122C1266.25 122 1252.72 121.718 1239.33 121.718C1228.2 121.718 1217.2 121.718 1206.07 122V118.335C1217.63 118.194 1219.46 116.785 1219.46 103.395V39.403C1219.46 28.9727 1217.63 27.5632 1206.07 27.2813ZM1294.07 27.2813V23.6166C1298.01 23.7575 1302.1 23.8985 1306.05 23.8985C1310.7 23.8985 1314.37 23.6166 1318.59 23.6166C1324.37 32.2145 1337.76 45.4639 1352.56 61.6732C1360.03 69.9893 1366.38 76.8958 1371.73 82.5339L1388.36 100.435V43.6315C1388.36 30.805 1384.56 27.4222 1371.31 27.2813V23.6166C1377.37 23.7575 1383.43 23.8985 1389.63 23.8985C1395.41 23.8985 1401.33 23.6166 1407.25 23.6166V27.2813C1398.65 27.1403 1394 28.2679 1394 41.6582V123.269H1390.76L1317.04 42.363V95.6423C1317.04 113.825 1318.45 118.476 1333.82 118.335V122C1326.91 122 1321.69 121.718 1312.67 121.718C1307.18 121.718 1301.82 121.859 1296.32 122V118.335C1305.34 118.335 1311.41 118.194 1311.41 99.7298V43.4906C1311.41 32.6374 1306.89 27.1403 1294.07 27.2813Z" fill="black"/>
<path d="M321.232 180.302V178.874C323.759 178.929 326.287 178.983 328.759 178.983C331.397 178.983 334.034 178.929 336.616 178.874V180.302C333.1 180.302 331.616 180.852 331.616 184.313V212.883C331.616 219.311 330.737 221.619 329.089 224.366C327.386 227.223 323.759 228.926 320.518 228.926C317.002 228.926 314.859 227.443 314.859 225.245C314.859 223.652 316.013 222.828 317.002 222.828C318.265 222.828 318.925 223.652 318.925 224.806C318.925 226.014 319.968 227.168 321.891 227.168C324.803 227.168 326.232 224.201 326.232 217.114V184.148C326.232 180.467 324.144 180.357 321.232 180.302ZM340.334 180.302V178.874C342.807 178.929 345.279 178.983 347.751 178.983C350.389 178.983 353.081 178.929 355.718 178.874V180.302C351.817 180.247 350.718 181.181 350.718 184.368V203.103C350.718 211.345 354.29 215.795 361.432 215.795C368.025 215.795 371.432 212.059 371.432 205.136V188.928C371.432 180.467 371.047 180.412 366.212 180.302V178.874C368.355 178.929 370.498 178.983 372.64 178.983C374.673 178.983 376.651 178.874 378.684 178.874V180.302C374.783 180.302 374.344 181.95 374.344 187.445V205.026C374.344 212.608 369.454 218.048 360.004 218.048C350.444 218.048 345.334 213.103 345.334 204.092V184.313C345.334 181.236 344.235 180.247 340.334 180.302ZM382.952 180.302V178.874C385.589 178.929 388.282 178.983 391.084 178.983C394.051 178.983 394.325 178.874 398.831 178.874C407.127 178.874 411.358 182.994 411.358 188.598C411.358 192.719 408.501 196.51 403.556 197.994L410.149 207.828C411.248 209.422 412.346 211.015 413.555 212.334C415.698 214.751 417.401 215.85 419.764 215.795V217.224C418.335 217.224 416.907 217.114 415.478 217.114C413.94 217.114 412.456 217.169 410.973 217.224C408.391 214.422 406.303 211.455 404.49 208.762C402.347 205.576 400.369 202.279 398.336 199.093H393.336V211.894C393.336 215.246 394.93 215.85 398.336 215.795V217.224C395.809 217.224 393.281 217.114 390.699 217.114C388.117 217.114 385.534 217.169 382.952 217.224V215.795C386.908 216.015 387.952 214.367 387.952 211.894V184.368C387.952 181.126 386.798 180.247 382.952 180.302ZM393.336 180.961V197.06C394.16 197.224 395.04 197.334 396.413 197.334C402.182 197.334 405.643 193.653 405.643 188.928C405.643 183.489 402.457 180.632 396.578 180.632C395.479 180.632 394.875 180.742 393.336 180.961ZM423.702 180.302V178.874C426.229 178.929 428.702 178.983 431.229 178.983C433.866 178.983 436.504 178.929 439.086 178.874V180.302C435.68 180.302 434.086 180.742 434.086 184.313V211.619C434.086 214.806 435.02 215.85 439.086 215.795V217.224C436.504 217.224 433.976 217.114 431.394 217.114C428.812 217.114 426.229 217.169 423.702 217.224V215.795C427.273 215.795 428.702 215.246 428.702 211.729V184.368C428.702 181.126 427.548 180.247 423.702 180.302ZM443.758 180.302V178.874C445.956 178.983 448.208 178.983 450.516 178.983C452.494 178.983 456.505 178.874 459.581 178.874C474.306 178.874 481.723 188.653 481.723 198.104C481.723 204.697 477.548 217.224 459.197 217.224C456.45 217.224 453.428 217.114 450.791 217.114C448.428 217.114 446.065 217.169 443.758 217.224V215.795C447.054 215.465 448.813 215.356 448.813 211.619V185.137C448.813 181.731 447.879 180.302 444.692 180.302H443.758ZM454.197 180.852V210.74C454.197 214.971 457.219 215.465 459.966 215.465C470.9 215.465 475.68 207.609 475.68 198.323C475.68 187.994 469.032 180.632 458.483 180.632C456.34 180.632 455.296 180.797 454.197 180.852ZM501.96 178.049C504.103 178.049 506.52 178.544 508.663 178.874L509.542 185.906H508.278C507.674 182.005 505.092 179.808 501.191 179.808C497.015 179.808 494.597 182.829 494.597 186.84C494.597 197.115 511.52 194.203 511.52 206.894C511.52 213.982 505.201 218.048 498.608 218.048C495.861 218.048 492.894 217.443 490.202 216.18L489.103 208.158H490.367C491.466 212.828 494.762 216.29 498.938 216.29C503.223 216.29 506.465 213.268 506.465 208.982C506.465 198.763 490.202 201.785 490.202 188.818C490.202 182.06 494.872 178.049 501.96 178.049ZM539.705 178.049C544.156 178.049 548.441 179.478 552.672 180.961L553.221 188.818H551.848C550.969 183.049 546.958 179.808 540.09 179.808C534.046 179.808 524.596 183.818 524.596 197.224C524.596 208.378 532.563 216.29 540.969 216.29C546.189 216.29 550.804 212.883 552.013 206.785L553.276 207.114L552.013 215.136C549.65 216.564 543.497 218.048 539.815 218.048C527.069 218.048 518.882 209.751 518.882 197.389C518.882 186.236 528.772 178.049 539.705 178.049ZM558.423 180.302V178.874C561.061 178.929 563.698 178.983 566.39 178.983C568.862 178.983 571.335 178.929 573.807 178.874V180.302C570.676 180.302 568.808 180.577 568.808 184.258V196.236H591.004V184.148C591.004 180.467 588.862 180.302 586.005 180.302V178.874C588.642 178.929 591.224 178.983 593.861 178.983C596.389 178.983 598.916 178.874 601.389 178.874V180.302C598.312 180.302 596.389 180.577 596.389 184.203V211.949C596.389 215.52 598.367 215.795 601.389 215.795V217.224C598.806 217.169 596.224 217.114 593.642 217.114C591.059 217.114 588.532 217.169 586.005 217.224V215.795C589.191 215.795 591.004 215.411 591.004 211.949V198.488H568.808V211.784C568.808 215.191 570.181 215.795 573.807 215.795V217.224C571.115 217.224 568.478 217.114 565.786 217.114C563.313 217.114 560.841 217.169 558.423 217.224V215.795C561.94 215.795 563.423 215.246 563.423 211.839V184.148C563.423 180.192 560.951 180.412 558.423 180.302ZM641.239 177.335H642.173C645.909 187.719 650.085 198.983 653.711 209.312C654.37 211.18 655.304 213.707 655.799 214.312C656.623 215.301 657.886 215.795 660.029 215.795V217.224C657.831 217.224 655.799 217.114 652.502 217.114C651.293 217.114 647.942 217.169 645.689 217.224V215.795H646.513C648.326 215.795 649.7 215.411 649.7 213.982C649.7 212.773 648.656 210.301 646.129 202.829H633.217C631.349 208.653 630.525 211.4 630.525 213.213C630.525 215.685 632.118 215.795 634.206 215.795H635.525V217.224C633.327 217.224 631.184 217.114 629.041 217.114C626.844 217.114 624.591 217.169 622.393 217.224V215.795C625.855 215.411 626.349 214.916 627.723 211.894C628.382 210.466 629.096 208.268 629.976 205.741L636.843 186.566C637.777 183.873 638.162 182.665 638.162 180.852C638.162 180.192 638.107 179.972 638.052 179.753C639.426 179.093 640.415 178.599 641.239 177.335ZM639.316 184.423L633.986 200.576H645.305L639.426 184.423H639.316ZM664.243 180.302V178.874C666.441 178.983 668.694 178.983 671.001 178.983C672.979 178.983 676.99 178.874 680.067 178.874C694.792 178.874 702.209 188.653 702.209 198.104C702.209 204.697 698.033 217.224 679.682 217.224C676.935 217.224 673.913 217.114 671.276 217.114C668.914 217.114 666.551 217.169 664.243 217.224V215.795C667.54 215.465 669.298 215.356 669.298 211.619V185.137C669.298 181.731 668.364 180.302 665.178 180.302H664.243ZM674.683 180.852V210.74C674.683 214.971 677.704 215.465 680.452 215.465C691.385 215.465 696.165 207.609 696.165 198.323C696.165 187.994 689.517 180.632 678.968 180.632C676.825 180.632 675.781 180.797 674.683 180.852ZM707.391 180.302V178.874C709.809 178.929 712.226 178.983 714.644 178.983C717.171 178.983 719.643 178.874 722.116 178.874V180.302C721.072 180.357 720.248 180.357 719.698 180.467C718.49 180.687 718.325 181.291 718.325 181.786C718.325 183.489 720.632 188.708 721.841 191.84L729.148 210.631C735.742 193.543 736.566 191.455 737.335 189.093C738.159 186.511 739.038 184.643 739.038 182.829C739.038 181.016 738.159 180.302 734.862 180.302V178.874C736.895 178.929 738.983 178.983 741.016 178.983C742.829 178.983 744.642 178.929 746.455 178.874V180.302C744.313 180.247 743.159 181.676 742.774 182.445C742.115 183.818 740.522 187.994 738.599 192.829L728.544 218.048H726.511C722.171 207.279 719.314 200.081 717.391 195.301C714.039 187.06 713.545 185.687 713.16 184.643C712.501 182.775 711.732 181.621 710.962 181.071C710.138 180.522 708.93 180.302 707.391 180.302ZM749.843 180.302V178.874C752.37 178.929 754.843 178.983 757.37 178.983C760.007 178.983 762.645 178.929 765.227 178.874V180.302C761.82 180.302 760.227 180.742 760.227 184.313V211.619C760.227 214.806 761.161 215.85 765.227 215.795V217.224C762.645 217.224 760.117 217.114 757.535 217.114C754.953 217.114 752.37 217.169 749.843 217.224V215.795C753.414 215.795 754.843 215.246 754.843 211.729V184.368C754.843 181.126 753.689 180.247 749.843 180.302ZM770.064 180.302V178.874C773.525 178.983 779.898 178.983 784.843 178.983C788.854 178.983 794.238 178.929 796.986 178.874V187.06L795.887 187.335C795.118 182.28 792.59 180.632 787.316 180.632H780.668V196.236H788.03C790.777 196.236 792.37 194.807 792.535 191.51H793.634C793.524 192.774 793.414 195.027 793.414 197.719C793.414 199.202 793.689 202.114 793.634 203.763H792.535C792.48 199.202 791.326 198.488 787.59 198.488H780.668V208.323C780.668 214.202 781.107 215.465 786.546 215.465H789.678C791.766 215.465 792.865 215.301 793.689 215.136C796.161 214.531 798.029 213.213 799.678 208.598L800.996 208.817C800.117 211.619 799.348 214.092 798.744 217.224C793.524 217.224 788.25 217.114 783.03 217.114C778.69 217.114 774.404 217.114 770.064 217.224V215.795C774.569 215.74 775.283 215.191 775.283 209.971V185.027C775.283 180.961 774.569 180.412 770.064 180.302ZM818.926 178.049C821.068 178.049 823.486 178.544 825.629 178.874L826.508 185.906H825.244C824.64 182.005 822.057 179.808 818.157 179.808C813.981 179.808 811.563 182.829 811.563 186.84C811.563 197.115 828.486 194.203 828.486 206.894C828.486 213.982 822.167 218.048 815.574 218.048C812.827 218.048 809.86 217.443 807.168 216.18L806.069 208.158H807.333C808.432 212.828 811.728 216.29 815.904 216.29C820.189 216.29 823.431 213.268 823.431 208.982C823.431 198.763 807.168 201.785 807.168 188.818C807.168 182.06 811.838 178.049 818.926 178.049ZM866.579 178.489C870.974 178.489 874.381 181.016 874.381 185.027C874.381 187.939 872.513 190.302 868.337 192.554C872.787 195.906 876.633 199.972 879.93 204.422C883.611 199.917 887.677 194.148 887.677 191.895C887.677 190.741 886.798 190.082 884.27 190.137V188.708C887.072 188.818 889.27 188.873 891.028 188.873C893.006 188.873 896.632 188.818 898.885 188.708V190.137C890.094 190.137 890.753 194.313 880.864 205.741C884.05 209.422 887.072 215.52 892.567 215.52C895.149 215.52 896.962 214.037 898.555 212.114L899.434 212.938C896.687 216.784 893.665 219.147 889.765 219.147C883.886 219.147 880.589 213.542 877.677 209.587L874.765 212.773C871.908 215.905 868.886 218.048 864.436 218.048C858.227 218.048 853.283 213.048 853.283 207.004C853.283 201.675 855.59 197.884 862.513 194.093C859.931 192.39 858.063 190.082 858.063 186.84C858.063 181.621 861.689 178.489 866.579 178.489ZM861.689 184.807C861.689 188.379 864.821 190.192 867.018 191.785C869.381 190.302 870.754 188.049 870.754 185.357C870.754 182.17 869.161 179.918 866.084 179.918C863.557 179.918 861.689 182.005 861.689 184.807ZM857.348 203.982C857.348 209.202 861.799 213.982 867.183 213.982C871.963 213.982 874.216 211.18 876.798 208.268C873.117 203.268 868.776 199.202 863.722 194.862C859.161 197.664 857.348 200.521 857.348 203.982ZM922.052 180.302V178.874C924.689 178.929 927.381 178.983 930.183 178.983C933.15 178.983 933.425 178.874 937.93 178.874C946.227 178.874 950.457 182.994 950.457 188.598C950.457 192.719 947.6 196.51 942.655 197.994L949.249 207.828C950.347 209.422 951.446 211.015 952.655 212.334C954.798 214.751 956.501 215.85 958.864 215.795V217.224C957.435 217.224 956.007 217.114 954.578 217.114C953.04 217.114 951.556 217.169 950.073 217.224C947.49 214.422 945.403 211.455 943.59 208.762C941.447 205.576 939.469 202.279 937.436 199.093H932.436V211.894C932.436 215.246 934.029 215.85 937.436 215.795V217.224C934.909 217.224 932.381 217.114 929.799 217.114C927.217 217.114 924.634 217.169 922.052 217.224V215.795C926.008 216.015 927.052 214.367 927.052 211.894V184.368C927.052 181.126 925.898 180.247 922.052 180.302ZM932.436 180.961V197.06C933.26 197.224 934.139 197.334 935.513 197.334C941.282 197.334 944.743 193.653 944.743 188.928C944.743 183.489 941.557 180.632 935.678 180.632C934.579 180.632 933.975 180.742 932.436 180.961ZM963.132 180.302V178.874C966.593 178.983 972.966 178.983 977.911 178.983C981.922 178.983 987.306 178.929 990.053 178.874V187.06L988.955 187.335C988.185 182.28 985.658 180.632 980.384 180.632H973.735V196.236H981.098C983.845 196.236 985.438 194.807 985.603 191.51H986.702C986.592 192.774 986.482 195.027 986.482 197.719C986.482 199.202 986.757 202.114 986.702 203.763H985.603C985.548 199.202 984.394 198.488 980.658 198.488H973.735V208.323C973.735 214.202 974.175 215.465 979.614 215.465H982.746C984.834 215.465 985.933 215.301 986.757 215.136C989.229 214.531 991.097 213.213 992.746 208.598L994.064 208.817C993.185 211.619 992.416 214.092 991.812 217.224C986.592 217.224 981.318 217.114 976.098 217.114C971.758 217.114 967.472 217.114 963.132 217.224V215.795C967.637 215.74 968.351 215.191 968.351 209.971V185.027C968.351 180.961 967.637 180.412 963.132 180.302ZM1020.62 178.049C1025.07 178.049 1029.36 179.478 1033.59 180.961L1034.14 188.818H1032.76C1031.88 183.049 1027.87 179.808 1021 179.808C1014.96 179.808 1005.51 183.818 1005.51 197.224C1005.51 208.378 1013.48 216.29 1021.88 216.29C1027.1 216.29 1031.72 212.883 1032.93 206.785L1034.19 207.114L1032.93 215.136C1030.56 216.564 1024.41 218.048 1020.73 218.048C1007.98 218.048 999.796 209.751 999.796 197.389C999.796 186.236 1009.69 178.049 1020.62 178.049ZM1039.34 180.302V178.874C1041.97 178.929 1044.61 178.983 1047.3 178.983C1049.78 178.983 1052.25 178.929 1054.72 178.874V180.302C1051.59 180.302 1049.72 180.577 1049.72 184.258V196.236H1071.92V184.148C1071.92 180.467 1069.78 180.302 1066.92 180.302V178.874C1069.56 178.929 1072.14 178.983 1074.78 178.983C1077.3 178.983 1079.83 178.874 1082.3 178.874V180.302C1079.23 180.302 1077.3 180.577 1077.3 184.203V211.949C1077.3 215.52 1079.28 215.795 1082.3 215.795V217.224C1079.72 217.169 1077.14 217.114 1074.56 217.114C1071.97 217.114 1069.45 217.169 1066.92 217.224V215.795C1070.11 215.795 1071.92 215.411 1071.92 211.949V198.488H1049.72V211.784C1049.72 215.191 1051.1 215.795 1054.72 215.795V217.224C1052.03 217.224 1049.39 217.114 1046.7 217.114C1044.23 217.114 1041.75 217.169 1039.34 217.224V215.795C1042.85 215.795 1044.34 215.246 1044.34 211.839V184.148C1044.34 180.192 1041.86 180.412 1039.34 180.302ZM1086.26 186.071L1086.86 177.335H1087.96C1088.51 178.819 1090.21 178.874 1091.26 178.874H1116.53C1118.12 178.874 1119.72 178.434 1119.94 177.335H1121.09L1120.6 186.071H1119.11C1118.89 183.489 1119.44 181.126 1114.66 181.126H1106.37V211.949C1106.37 215.685 1108.56 215.74 1111.37 215.795V217.224C1108.73 217.224 1106.04 217.114 1103.34 217.114C1100.87 217.114 1098.46 217.169 1095.98 217.224V215.795C1098.29 215.685 1100.98 216.015 1100.98 212.004V181.126H1093.84C1089.22 181.126 1088.62 182.115 1087.69 186.071H1086.26ZM1125.6 180.302V178.874C1128.23 178.929 1129.06 178.983 1131.2 178.983C1135.27 178.983 1136.48 178.874 1138.89 178.874C1145.65 178.874 1151.81 181.346 1151.81 187.774C1151.81 191.95 1148.62 195.137 1142.96 196.51V196.62C1147.08 196.4 1155.32 199.202 1155.32 206.785C1155.32 212.554 1150.65 217.224 1140.38 217.224C1137.63 217.224 1134.94 217.114 1132.19 217.114C1129.99 217.114 1127.8 217.169 1125.6 217.224V215.795C1129.5 216.015 1130.6 214.312 1130.6 212.169V184.203C1130.6 180.852 1129.06 180.302 1125.6 180.302ZM1135.98 180.742V196.236H1138.18C1144.28 196.236 1146.42 193.104 1146.42 187.884C1146.42 183.104 1144.44 180.632 1138.51 180.632C1137.47 180.632 1136.75 180.687 1135.98 180.742ZM1135.98 197.994V211.18C1135.98 213.707 1136.26 215.465 1140.93 215.465C1147.14 215.465 1149.61 211.4 1149.61 207.554C1149.61 201.125 1146.31 197.994 1139.44 197.994H1135.98ZM1160.28 180.302V178.874C1162.81 178.929 1165.28 178.983 1167.81 178.983C1170.45 178.983 1173.09 178.929 1175.67 178.874V180.302C1172.26 180.302 1170.67 180.742 1170.67 184.313V211.619C1170.67 214.806 1171.6 215.85 1175.67 215.795V217.224C1173.09 217.224 1170.56 217.114 1167.98 217.114C1165.39 217.114 1162.81 217.169 1160.28 217.224V215.795C1163.86 215.795 1165.28 215.246 1165.28 211.729V184.368C1165.28 181.126 1164.13 180.247 1160.28 180.302ZM1183.31 180.302V178.874C1185.83 178.929 1188.36 178.983 1190.83 178.983C1193.47 178.983 1196.11 178.929 1198.69 178.874V180.302C1195.17 180.302 1193.69 180.852 1193.69 184.313V212.883C1193.69 219.311 1192.81 221.619 1191.16 224.366C1189.46 227.223 1185.83 228.926 1182.59 228.926C1179.08 228.926 1176.93 227.443 1176.93 225.245C1176.93 223.652 1178.09 222.828 1179.08 222.828C1180.34 222.828 1181 223.652 1181 224.806C1181 226.014 1182.04 227.168 1183.97 227.168C1186.88 227.168 1188.31 224.201 1188.31 217.114V184.148C1188.31 180.467 1186.22 180.357 1183.31 180.302ZM1217.13 178.049C1219.28 178.049 1221.69 178.544 1223.84 178.874L1224.72 185.906H1223.45C1222.85 182.005 1220.27 179.808 1216.36 179.808C1212.19 179.808 1209.77 182.829 1209.77 186.84C1209.77 197.115 1226.69 194.203 1226.69 206.894C1226.69 213.982 1220.38 218.048 1213.78 218.048C1211.04 218.048 1208.07 217.443 1205.38 216.18L1204.28 208.158H1205.54C1206.64 212.828 1209.94 216.29 1214.11 216.29C1218.4 216.29 1221.64 213.268 1221.64 208.982C1221.64 198.763 1205.38 201.785 1205.38 188.818C1205.38 182.06 1210.05 178.049 1217.13 178.049ZM1231.75 186.071L1232.35 177.335H1233.45C1234 178.819 1235.7 178.874 1236.75 178.874H1262.02C1263.62 178.874 1265.21 178.434 1265.43 177.335H1266.58L1266.09 186.071H1264.6C1264.38 183.489 1264.93 181.126 1260.15 181.126H1251.86V211.949C1251.86 215.685 1254.06 215.74 1256.86 215.795V217.224C1254.22 217.224 1251.53 217.114 1248.84 217.114C1246.36 217.114 1243.95 217.169 1241.47 217.224V215.795C1243.78 215.685 1246.47 216.015 1246.47 212.004V181.126H1239.33C1234.72 181.126 1234.11 182.115 1233.18 186.071H1231.75ZM1284.87 177.335H1285.8C1289.54 187.719 1293.71 198.983 1297.34 209.312C1298 211.18 1298.93 213.707 1299.43 214.312C1300.25 215.301 1301.51 215.795 1303.66 215.795V217.224C1301.46 217.224 1299.43 217.114 1296.13 217.114C1294.92 217.114 1291.57 217.169 1289.32 217.224V215.795H1290.14C1291.95 215.795 1293.33 215.411 1293.33 213.982C1293.33 212.773 1292.28 210.301 1289.76 202.829H1276.85C1274.98 208.653 1274.15 211.4 1274.15 213.213C1274.15 215.685 1275.75 215.795 1277.83 215.795H1279.15V217.224C1276.96 217.224 1274.81 217.114 1272.67 217.114C1270.47 217.114 1268.22 217.169 1266.02 217.224V215.795C1269.48 215.411 1269.98 214.916 1271.35 211.894C1272.01 210.466 1272.72 208.268 1273.6 205.741L1280.47 186.566C1281.41 183.873 1281.79 182.665 1281.79 180.852C1281.79 180.192 1281.74 179.972 1281.68 179.753C1283.05 179.093 1284.04 178.599 1284.87 177.335ZM1282.94 184.423L1277.61 200.576H1288.93L1283.05 184.423H1282.94ZM1307.1 180.302V178.874C1308.64 178.929 1310.23 178.983 1311.77 178.983C1313.59 178.983 1315.01 178.874 1316.66 178.874C1318.92 182.225 1324.13 187.39 1329.9 193.708C1332.82 196.95 1335.29 199.642 1337.38 201.84L1343.86 208.817V186.675C1343.86 181.676 1342.38 180.357 1337.21 180.302V178.874C1339.57 178.929 1341.94 178.983 1344.35 178.983C1346.61 178.983 1348.91 178.874 1351.22 178.874V180.302C1347.87 180.247 1346.06 180.687 1346.06 185.906V217.718H1344.79L1316.06 186.181V206.949C1316.06 214.037 1316.61 215.85 1322.6 215.795V217.224C1319.9 217.224 1317.87 217.114 1314.36 217.114C1312.21 217.114 1310.12 217.169 1307.98 217.224V215.795C1311.5 215.795 1313.86 215.74 1313.86 208.543V186.621C1313.86 182.39 1312.1 180.247 1307.1 180.302ZM1355.29 180.302V178.874C1357.49 178.983 1359.74 178.983 1362.05 178.983C1364.02 178.983 1368.03 178.874 1371.11 178.874C1385.84 178.874 1393.25 188.653 1393.25 198.104C1393.25 204.697 1389.08 217.224 1370.73 217.224C1367.98 217.224 1364.96 217.114 1362.32 217.114C1359.96 217.114 1357.6 217.169 1355.29 217.224V215.795C1358.58 215.465 1360.34 215.356 1360.34 211.619V185.137C1360.34 181.731 1359.41 180.302 1356.22 180.302H1355.29ZM1365.73 180.852V210.74C1365.73 214.971 1368.75 215.465 1371.5 215.465C1382.43 215.465 1387.21 207.609 1387.21 198.323C1387.21 187.994 1380.56 180.632 1370.01 180.632C1367.87 180.632 1366.83 180.797 1365.73 180.852Z" fill="black"/>
<path d="M79.9351 95.3524V93.4172C83.5077 93.4917 87.0802 93.5661 90.7272 93.5661C94.0765 93.5661 97.4258 93.4917 100.775 93.4172V95.3524C96.5326 95.3524 94.0021 95.7245 94.0021 100.711V116.937H124.071V100.562C124.071 95.5757 121.168 95.3524 117.298 95.3524V93.4172C120.871 93.4917 124.369 93.5661 127.941 93.5661C131.365 93.5661 134.789 93.4172 138.138 93.4172V95.3524C133.97 95.3524 131.365 95.7245 131.365 100.637V138.223C131.365 143.061 134.044 143.433 138.138 143.433V145.368C134.64 145.294 131.142 145.219 127.644 145.219C124.146 145.219 120.722 145.294 117.298 145.368V143.433C121.615 143.433 124.071 142.912 124.071 138.223V119.988H94.0021V138C94.0021 142.614 95.8628 143.433 100.775 143.433V145.368C97.1281 145.368 93.5555 145.219 89.9085 145.219C86.5592 145.219 83.21 145.294 79.9351 145.368V143.433C84.6985 143.433 86.7081 142.689 86.7081 138.074V100.562C86.7081 95.2035 83.3588 95.5012 79.9351 95.3524ZM148.482 95.3524V93.4172C151.906 93.4917 155.33 93.5661 158.679 93.5661C162.252 93.5661 165.824 93.4917 169.322 93.4172V95.3524C164.559 95.3524 162.549 96.0967 162.549 100.786V139.488C162.549 148.196 161.358 151.322 159.126 155.044C156.818 158.914 151.906 161.221 147.515 161.221C142.751 161.221 139.849 159.212 139.849 156.235C139.849 154.076 141.412 152.96 142.751 152.96C144.463 152.96 145.356 154.076 145.356 155.639C145.356 157.277 146.771 158.84 149.376 158.84C153.32 158.84 155.255 154.821 155.255 145.219V100.562C155.255 95.5757 152.427 95.4268 148.482 95.3524Z" fill="#1F4E63"/>
<path d="M232.503 63.3008V187.435L125 249.502L17.4971 187.435V63.3008L125 1.2334L232.503 63.3008Z" stroke="#1F4E63" stroke-width="1.5" stroke-linejoin="round"/>
</svg>
