<svg width="1005" height="250" viewBox="0 0 1005 250" fill="none" xmlns="http://www.w3.org/2000/svg">
<path d="M283.404 70.8705V68.4667C287.842 68.5592 292.279 68.6516 296.81 68.6516C300.97 68.6516 305.131 68.5592 309.291 68.4667V70.8705C304.021 70.8705 300.878 71.3328 300.878 77.5273V97.6824H338.229V77.3424C338.229 71.1479 334.624 70.8705 329.816 70.8705V68.4667C334.254 68.5592 338.599 68.6516 343.037 68.6516C347.29 68.6516 351.543 68.4667 355.703 68.4667V70.8705C350.526 70.8705 347.29 71.3328 347.29 77.4348V124.124C347.29 130.134 350.618 130.596 355.703 130.596V133C351.358 132.908 347.013 132.815 342.667 132.815C338.322 132.815 334.069 132.908 329.816 133V130.596C335.178 130.596 338.229 129.949 338.229 124.124V101.473H300.878V123.847C300.878 129.579 303.189 130.596 309.291 130.596V133C304.761 133 300.323 132.815 295.793 132.815C291.632 132.815 287.472 132.908 283.404 133V130.596C289.321 130.596 291.817 129.672 291.817 123.939V77.3424C291.817 70.6856 287.657 71.0555 283.404 70.8705ZM364.208 70.8705V68.4667C368.645 68.5592 370.032 68.6516 373.638 68.6516C380.48 68.6516 382.514 68.4667 386.582 68.4667C397.954 68.4667 408.308 72.6272 408.308 83.4444C408.308 90.4709 402.946 95.8333 393.423 98.1446V98.3295C400.357 97.9597 414.226 102.675 414.226 115.434C414.226 125.141 406.367 133 389.078 133C384.455 133 379.925 132.815 375.302 132.815C371.604 132.815 367.906 132.908 364.208 133V130.596C370.772 130.966 372.621 128.1 372.621 124.494V77.4348C372.621 71.7951 370.032 70.8705 364.208 70.8705ZM381.682 71.6102V97.6824H385.38C395.642 97.6824 399.248 92.4125 399.248 83.6293C399.248 75.5857 395.92 71.4253 385.934 71.4253C384.178 71.4253 382.976 71.5177 381.682 71.6102ZM381.682 100.641V122.83C381.682 127.083 382.144 130.041 390.002 130.041C400.45 130.041 404.61 123.2 404.61 116.728C404.61 105.911 399.063 100.641 387.506 100.641H381.682ZM426.183 70.8705V68.4667C429.418 68.5592 432.562 68.6516 435.705 68.6516C437.832 68.6516 439.866 68.4667 441.9 68.4667L466.77 120.334L480.638 92.1351C483.967 85.3859 488.127 76.6952 491.733 68.4667C494.137 68.5592 496.448 68.6516 498.852 68.6516C501.718 68.6516 504.584 68.4667 507.45 68.4667V70.8705C500.886 70.8705 499.222 71.7026 499.222 77.8971C499.222 91.6728 500.331 116.358 500.516 123.385C500.701 129.302 502.735 130.596 510.501 130.596V133C505.509 133 500.516 132.815 495.523 132.815C490.901 132.815 486.37 132.908 481.748 133V130.596C485.076 130.689 487.387 130.504 488.867 129.764C490.808 128.747 491.271 126.343 491.271 123.292L490.623 79.3764H490.438L469.359 123.107C468.712 124.402 466.955 128.1 465.013 133.832H463.164C460.853 128.655 458.727 124.032 456.6 119.594C450.313 106.373 443.934 93.9842 437.647 81.4104H437.462C437.185 94.4465 436.63 116.266 436.63 120.704C436.63 125.326 437.092 127.638 438.571 129.024C439.866 130.226 442.085 130.596 446.06 130.596V133C442.362 133 438.664 132.815 434.966 132.815C430.713 132.815 426.552 132.908 422.299 133V130.596C429.511 130.596 432.932 128.285 433.302 116.728C433.579 107.02 434.319 91.0256 434.319 79.2839C434.319 72.2574 432.747 70.963 426.183 70.8705ZM551.58 70.8705V68.4667C555.833 68.5592 560.086 68.6516 564.247 68.6516C568.685 68.6516 573.122 68.5592 577.468 68.4667V70.8705C571.551 70.8705 569.054 71.7951 569.054 77.6197V125.696C569.054 136.513 567.575 140.396 564.801 145.019C561.935 149.827 555.833 152.693 550.379 152.693C544.461 152.693 540.856 150.197 540.856 146.498C540.856 143.817 542.797 142.43 544.461 142.43C546.588 142.43 547.697 143.817 547.697 145.759C547.697 147.793 549.454 149.734 552.69 149.734C557.59 149.734 559.994 144.742 559.994 132.815V77.3424C559.994 71.1479 556.481 70.963 551.58 70.8705ZM583.724 70.8705V68.4667C587.885 68.5592 592.045 68.6516 596.206 68.6516C600.644 68.6516 605.174 68.5592 609.612 68.4667V70.8705C603.047 70.7781 601.198 72.3498 601.198 77.7122V109.239C601.198 123.107 607.208 130.596 619.227 130.596C630.321 130.596 636.054 124.309 636.054 112.66V85.3859C636.054 71.1479 635.406 71.0555 627.27 70.8705V68.4667C630.876 68.5592 634.482 68.6516 638.088 68.6516C641.508 68.6516 644.837 68.4667 648.258 68.4667V70.8705C641.693 70.8705 640.954 73.6442 640.954 82.8896V112.475C640.954 125.234 632.725 134.387 616.823 134.387C600.736 134.387 592.138 126.066 592.138 110.903V77.6197C592.138 72.4423 590.289 70.7781 583.724 70.8705ZM655.439 70.8705V68.4667C659.877 68.5592 664.408 68.6516 669.123 68.6516C674.115 68.6516 674.578 68.4667 682.159 68.4667C696.119 68.4667 703.238 75.4008 703.238 84.8312C703.238 91.7653 698.431 98.1446 690.11 100.641L701.204 117.19C703.054 119.871 704.903 122.553 706.937 124.772C710.542 128.84 713.408 130.689 717.384 130.596V133C714.98 133 712.576 132.815 710.173 132.815C707.584 132.815 705.088 132.908 702.591 133C698.246 128.285 694.733 123.292 691.682 118.762C688.076 113.4 684.748 107.852 681.327 102.49H672.913V124.032C672.913 129.672 675.595 130.689 681.327 130.596V133C677.074 133 672.821 132.815 668.476 132.815C664.13 132.815 659.785 132.908 655.439 133V130.596C662.096 130.966 663.853 128.192 663.853 124.032V77.7122C663.853 72.2574 661.911 70.7781 655.439 70.8705ZM672.913 71.98V99.0692C674.3 99.3465 675.779 99.5315 678.091 99.5315C687.799 99.5315 693.623 93.337 693.623 85.3859C693.623 76.2329 688.261 71.4253 678.368 71.4253C676.519 71.4253 675.502 71.6102 672.913 71.98ZM724.011 70.8705V68.4667C728.264 68.5592 732.424 68.6516 736.677 68.6516C741.115 68.6516 745.553 68.5592 749.898 68.4667V70.8705C744.166 70.8705 741.485 71.6102 741.485 77.6197V123.57C741.485 128.932 743.057 130.689 749.898 130.596V133C745.553 133 741.3 132.815 736.955 132.815C732.609 132.815 728.264 132.908 724.011 133V130.596C730.021 130.596 732.424 129.672 732.424 123.755V77.7122C732.424 72.2574 730.483 70.7781 724.011 70.8705ZM780.966 67.0799C784.572 67.0799 788.64 67.912 792.245 68.4667L793.725 80.3009H791.598C790.581 73.7366 786.236 70.0385 779.672 70.0385C772.645 70.0385 768.577 75.1235 768.577 81.8726C768.577 99.1616 797.053 94.2615 797.053 115.619C797.053 127.545 786.421 134.387 775.326 134.387C770.704 134.387 765.711 133.37 761.181 131.243L759.332 117.745H761.458C763.307 125.604 768.854 131.428 775.881 131.428C783.092 131.428 788.547 126.343 788.547 119.132C788.547 101.935 761.181 107.02 761.181 85.201C761.181 73.8291 769.039 67.0799 780.966 67.0799ZM805.559 80.5783L806.576 65.878H808.425C809.35 68.3743 812.216 68.4667 813.972 68.4667H856.501C859.183 68.4667 861.864 67.7271 862.234 65.878H864.175L863.343 80.5783H860.847C860.477 76.2329 861.401 72.2574 853.358 72.2574H839.397V124.124C839.397 130.411 843.095 130.504 847.811 130.596V133C843.373 133 838.843 132.815 834.312 132.815C830.152 132.815 826.084 132.908 821.923 133V130.596C825.806 130.411 830.337 130.966 830.337 124.217V72.2574H818.318C810.551 72.2574 809.534 73.9215 807.963 80.5783H805.559ZM871.388 70.8705V68.4667C877.213 68.6516 887.937 68.6516 896.258 68.6516C903.007 68.6516 912.068 68.5592 916.691 68.4667V82.2425L914.842 82.7047C913.547 74.1989 909.294 71.4253 900.419 71.4253H889.232V97.6824H901.621C906.243 97.6824 908.925 95.2785 909.202 89.7313H911.051C910.866 91.8577 910.681 95.6484 910.681 100.179C910.681 102.675 911.143 107.575 911.051 110.349H909.202C909.109 102.675 907.168 101.473 900.881 101.473H889.232V118.022C889.232 127.915 889.971 130.041 899.124 130.041H904.394C907.908 130.041 909.757 129.764 911.143 129.487C915.304 128.47 918.447 126.251 921.221 118.485L923.44 118.854C921.961 123.57 920.666 127.73 919.649 133C910.866 133 901.99 132.815 893.207 132.815C885.903 132.815 878.692 132.815 871.388 133V130.596C878.969 130.504 880.171 129.579 880.171 120.796V78.8216C880.171 71.98 878.969 71.0555 871.388 70.8705ZM929.11 70.8705V68.4667C931.699 68.5592 934.38 68.6516 936.969 68.6516C940.02 68.6516 942.423 68.4667 945.197 68.4667C948.988 74.1065 957.771 82.7972 967.479 93.4295C972.379 98.8843 976.539 103.415 980.052 107.113L990.962 118.854V81.5953C990.962 73.1819 988.466 70.963 979.775 70.8705V68.4667C983.751 68.5592 987.726 68.6516 991.794 68.6516C995.585 68.6516 999.468 68.4667 1003.35 68.4667V70.8705C997.711 70.7781 994.66 71.5177 994.66 80.3009V133.832H992.534L944.18 80.7632V115.711C944.18 127.638 945.105 130.689 955.182 130.596V133C950.652 133 947.231 132.815 941.314 132.815C937.708 132.815 934.195 132.908 930.589 133V130.596C936.506 130.596 940.482 130.504 940.482 118.392V81.5028C940.482 74.3838 937.523 70.7781 929.11 70.8705Z" fill="black"/>
<path d="M290.991 170.782V169.845C292.649 169.881 294.307 169.917 295.929 169.917C297.658 169.917 299.388 169.881 301.082 169.845V170.782C298.776 170.782 297.803 171.142 297.803 173.413V192.153C297.803 196.369 297.226 197.883 296.145 199.685C295.028 201.559 292.649 202.676 290.523 202.676C288.216 202.676 286.811 201.703 286.811 200.262C286.811 199.217 287.568 198.676 288.216 198.676C289.045 198.676 289.478 199.217 289.478 199.973C289.478 200.766 290.162 201.523 291.424 201.523C293.334 201.523 294.271 199.577 294.271 194.928V173.305C294.271 170.89 292.901 170.818 290.991 170.782ZM303.521 170.782V169.845C305.143 169.881 306.764 169.917 308.386 169.917C310.116 169.917 311.882 169.881 313.612 169.845V170.782C311.053 170.746 310.332 171.358 310.332 173.449V185.738C310.332 191.144 312.675 194.063 317.36 194.063C321.685 194.063 323.919 191.612 323.919 187.071V176.44C323.919 170.89 323.667 170.854 320.495 170.782V169.845C321.901 169.881 323.306 169.917 324.712 169.917C326.045 169.917 327.343 169.845 328.676 169.845V170.782C326.117 170.782 325.829 171.863 325.829 175.467V186.999C325.829 191.973 322.622 195.541 316.423 195.541C310.152 195.541 306.801 192.297 306.801 186.387V173.413C306.801 171.394 306.08 170.746 303.521 170.782ZM331.476 170.782V169.845C333.206 169.881 334.971 169.917 336.809 169.917C338.755 169.917 338.936 169.845 341.891 169.845C347.333 169.845 350.108 172.548 350.108 176.224C350.108 178.927 348.234 181.413 344.99 182.386L349.315 188.837C350.036 189.882 350.756 190.928 351.549 191.793C352.955 193.378 354.072 194.099 355.622 194.063V195C354.685 195 353.748 194.928 352.811 194.928C351.802 194.928 350.829 194.964 349.855 195C348.162 193.162 346.792 191.216 345.603 189.45C344.197 187.36 342.9 185.197 341.567 183.107H338.287V191.504C338.287 193.703 339.332 194.099 341.567 194.063V195C339.909 195 338.251 194.928 336.557 194.928C334.863 194.928 333.169 194.964 331.476 195V194.063C334.07 194.207 334.755 193.126 334.755 191.504V173.449C334.755 171.322 333.998 170.746 331.476 170.782ZM338.287 171.214V181.774C338.828 181.882 339.404 181.954 340.305 181.954C344.089 181.954 346.36 179.539 346.36 176.44C346.36 172.872 344.269 170.998 340.413 170.998C339.693 170.998 339.296 171.07 338.287 171.214ZM358.205 170.782V169.845C359.863 169.881 361.485 169.917 363.142 169.917C364.872 169.917 366.602 169.881 368.296 169.845V170.782C366.061 170.782 365.016 171.07 365.016 173.413V191.324C365.016 193.414 365.629 194.099 368.296 194.063V195C366.602 195 364.944 194.928 363.25 194.928C361.557 194.928 359.863 194.964 358.205 195V194.063C360.548 194.063 361.485 193.703 361.485 191.396V173.449C361.485 171.322 360.728 170.746 358.205 170.782ZM371.36 170.782V169.845C372.802 169.917 374.279 169.917 375.793 169.917C377.091 169.917 379.721 169.845 381.74 169.845C391.398 169.845 396.263 176.26 396.263 182.458C396.263 186.783 393.524 195 381.487 195C379.685 195 377.703 194.928 375.973 194.928C374.424 194.928 372.874 194.964 371.36 195V194.063C373.523 193.847 374.676 193.775 374.676 191.324V173.953C374.676 171.719 374.063 170.782 371.973 170.782H371.36ZM378.208 171.142V190.747C378.208 193.522 380.19 193.847 381.992 193.847C389.164 193.847 392.299 188.693 392.299 182.603C392.299 175.827 387.938 170.998 381.019 170.998C379.613 170.998 378.929 171.106 378.208 171.142ZM409.537 169.304C410.943 169.304 412.528 169.629 413.934 169.845L414.51 174.458H413.682C413.285 171.899 411.591 170.457 409.033 170.457C406.294 170.457 404.708 172.44 404.708 175.07C404.708 181.81 415.808 179.9 415.808 188.225C415.808 192.874 411.663 195.541 407.339 195.541C405.537 195.541 403.591 195.144 401.825 194.315L401.104 189.054H401.933C402.654 192.117 404.816 194.387 407.555 194.387C410.366 194.387 412.492 192.405 412.492 189.594C412.492 182.891 401.825 184.873 401.825 176.368C401.825 171.935 404.888 169.304 409.537 169.304ZM434.296 169.304C437.215 169.304 440.026 170.241 442.801 171.214L443.161 176.368H442.26C441.684 172.584 439.053 170.457 434.548 170.457C430.584 170.457 424.385 173.088 424.385 181.882C424.385 189.198 429.611 194.387 435.125 194.387C438.548 194.387 441.576 192.153 442.369 188.153L443.197 188.369L442.369 193.631C440.819 194.568 436.783 195.541 434.368 195.541C426.007 195.541 420.637 190.099 420.637 181.99C420.637 174.674 427.124 169.304 434.296 169.304ZM446.574 170.782V169.845C448.303 169.881 450.033 169.917 451.799 169.917C453.421 169.917 455.043 169.881 456.664 169.845V170.782C454.61 170.782 453.385 170.962 453.385 173.377V181.233H467.945V173.305C467.945 170.89 466.539 170.782 464.665 170.782V169.845C466.395 169.881 468.089 169.917 469.819 169.917C471.477 169.917 473.134 169.845 474.756 169.845V170.782C472.738 170.782 471.477 170.962 471.477 173.341V191.54C471.477 193.883 472.774 194.063 474.756 194.063V195C473.062 194.964 471.368 194.928 469.675 194.928C467.981 194.928 466.323 194.964 464.665 195V194.063C466.755 194.063 467.945 193.811 467.945 191.54V182.711H453.385V191.432C453.385 193.667 454.286 194.063 456.664 194.063V195C454.899 195 453.169 194.928 451.403 194.928C449.781 194.928 448.159 194.964 446.574 195V194.063C448.88 194.063 449.853 193.703 449.853 191.468V173.305C449.853 170.71 448.231 170.854 446.574 170.782ZM500.895 168.836H501.508C503.959 175.647 506.698 183.035 509.076 189.81C509.509 191.036 510.121 192.694 510.446 193.09C510.986 193.739 511.815 194.063 513.221 194.063V195C511.779 195 510.446 194.928 508.283 194.928C507.49 194.928 505.292 194.964 503.814 195V194.063H504.355C505.544 194.063 506.445 193.811 506.445 192.874C506.445 192.081 505.761 190.459 504.103 185.558H495.634C494.408 189.378 493.868 191.18 493.868 192.369C493.868 193.991 494.913 194.063 496.282 194.063H497.147V195C495.706 195 494.3 194.928 492.895 194.928C491.453 194.928 489.975 194.964 488.534 195V194.063C490.804 193.811 491.129 193.486 492.03 191.504C492.462 190.567 492.931 189.126 493.507 187.468L498.012 174.89C498.625 173.124 498.877 172.332 498.877 171.142C498.877 170.71 498.841 170.566 498.805 170.421C499.706 169.989 500.355 169.665 500.895 168.836ZM499.634 173.485L496.138 184.08H503.562L499.706 173.485H499.634ZM515.985 170.782V169.845C517.426 169.917 518.904 169.917 520.418 169.917C521.715 169.917 524.346 169.845 526.364 169.845C536.023 169.845 540.888 176.26 540.888 182.458C540.888 186.783 538.149 195 526.112 195C524.31 195 522.328 194.928 520.598 194.928C519.048 194.928 517.499 194.964 515.985 195V194.063C518.147 193.847 519.3 193.775 519.3 191.324V173.953C519.3 171.719 518.688 170.782 516.598 170.782H515.985ZM522.832 171.142V190.747C522.832 193.522 524.814 193.847 526.616 193.847C533.788 193.847 536.923 188.693 536.923 182.603C536.923 175.827 532.563 170.998 525.643 170.998C524.238 170.998 523.553 171.106 522.832 171.142ZM544.287 170.782V169.845C545.873 169.881 547.458 169.917 549.044 169.917C550.702 169.917 552.324 169.845 553.945 169.845V170.782C553.261 170.818 552.72 170.818 552.36 170.89C551.567 171.034 551.459 171.431 551.459 171.755C551.459 172.872 552.972 176.296 553.765 178.35L558.558 190.675C562.883 179.467 563.424 178.098 563.928 176.548C564.469 174.854 565.045 173.629 565.045 172.44C565.045 171.25 564.469 170.782 562.306 170.782V169.845C563.64 169.881 565.009 169.917 566.343 169.917C567.532 169.917 568.721 169.881 569.911 169.845V170.782C568.505 170.746 567.748 171.683 567.496 172.187C567.064 173.088 566.018 175.827 564.757 178.999L558.162 195.541H556.829C553.981 188.477 552.107 183.756 550.846 180.62C548.648 175.215 548.323 174.314 548.071 173.629C547.639 172.404 547.134 171.647 546.63 171.286C546.089 170.926 545.296 170.782 544.287 170.782ZM572.133 170.782V169.845C573.79 169.881 575.412 169.917 577.07 169.917C578.8 169.917 580.53 169.881 582.224 169.845V170.782C579.989 170.782 578.944 171.07 578.944 173.413V191.324C578.944 193.414 579.557 194.099 582.224 194.063V195C580.53 195 578.872 194.928 577.178 194.928C575.484 194.928 573.79 194.964 572.133 195V194.063C574.475 194.063 575.412 193.703 575.412 191.396V173.449C575.412 171.322 574.655 170.746 572.133 170.782ZM585.396 170.782V169.845C587.667 169.917 591.847 169.917 595.091 169.917C597.721 169.917 601.253 169.881 603.055 169.845V175.215L602.334 175.395C601.83 172.079 600.172 170.998 596.712 170.998H592.352V181.233H597.181C598.983 181.233 600.028 180.296 600.136 178.134H600.857C600.785 178.963 600.713 180.44 600.713 182.206C600.713 183.179 600.893 185.089 600.857 186.17H600.136C600.1 183.179 599.343 182.711 596.893 182.711H592.352V189.162C592.352 193.018 592.64 193.847 596.208 193.847H598.262C599.632 193.847 600.352 193.739 600.893 193.631C602.515 193.234 603.74 192.369 604.821 189.342L605.686 189.486C605.109 191.324 604.605 192.946 604.208 195C600.785 195 597.325 194.928 593.901 194.928C591.054 194.928 588.243 194.928 585.396 195V194.063C588.351 194.027 588.82 193.667 588.82 190.243V173.881C588.82 171.214 588.351 170.854 585.396 170.782ZM617.447 169.304C618.852 169.304 620.438 169.629 621.843 169.845L622.42 174.458H621.591C621.195 171.899 619.501 170.457 616.942 170.457C614.203 170.457 612.617 172.44 612.617 175.07C612.617 181.81 623.717 179.9 623.717 188.225C623.717 192.874 619.573 195.541 615.248 195.541C613.446 195.541 611.5 195.144 609.734 194.315L609.013 189.054H609.842C610.563 192.117 612.725 194.387 615.464 194.387C618.275 194.387 620.402 192.405 620.402 189.594C620.402 182.891 609.734 184.873 609.734 176.368C609.734 171.935 612.798 169.304 617.447 169.304ZM648.704 169.593C651.587 169.593 653.821 171.25 653.821 173.881C653.821 175.791 652.596 177.341 649.857 178.819C652.776 181.017 655.299 183.684 657.461 186.603C659.876 183.648 662.543 179.864 662.543 178.386C662.543 177.629 661.966 177.197 660.308 177.233V176.296C662.146 176.368 663.588 176.404 664.741 176.404C666.039 176.404 668.417 176.368 669.895 176.296V177.233C664.129 177.233 664.561 179.972 658.074 187.468C660.164 189.882 662.146 193.883 665.75 193.883C667.444 193.883 668.633 192.91 669.679 191.648L670.255 192.189C668.453 194.712 666.471 196.261 663.912 196.261C660.056 196.261 657.894 192.585 655.984 189.991L654.074 192.081C652.2 194.135 650.218 195.541 647.298 195.541C643.226 195.541 639.982 192.261 639.982 188.297C639.982 184.801 641.496 182.314 646.037 179.828C644.343 178.71 643.118 177.197 643.118 175.07C643.118 171.647 645.496 169.593 648.704 169.593ZM645.496 173.737C645.496 176.08 647.551 177.269 648.992 178.314C650.542 177.341 651.443 175.863 651.443 174.097C651.443 172.007 650.398 170.53 648.38 170.53C646.722 170.53 645.496 171.899 645.496 173.737ZM642.649 186.315C642.649 189.738 645.569 192.874 649.1 192.874C652.236 192.874 653.713 191.036 655.407 189.126C652.993 185.846 650.145 183.179 646.83 180.332C643.839 182.17 642.649 184.044 642.649 186.315ZM685.091 170.782V169.845C686.821 169.881 688.587 169.917 690.425 169.917C692.371 169.917 692.551 169.845 695.506 169.845C700.948 169.845 703.723 172.548 703.723 176.224C703.723 178.927 701.849 181.413 698.605 182.386L702.93 188.837C703.651 189.882 704.372 190.928 705.165 191.793C706.57 193.378 707.687 194.099 709.237 194.063V195C708.3 195 707.363 194.928 706.426 194.928C705.417 194.928 704.444 194.964 703.471 195C701.777 193.162 700.407 191.216 699.218 189.45C697.813 187.36 696.515 185.197 695.182 183.107H691.902V191.504C691.902 193.703 692.947 194.099 695.182 194.063V195C693.524 195 691.866 194.928 690.172 194.928C688.479 194.928 686.785 194.964 685.091 195V194.063C687.686 194.207 688.37 193.126 688.37 191.504V173.449C688.37 171.322 687.614 170.746 685.091 170.782ZM691.902 171.214V181.774C692.443 181.882 693.019 181.954 693.92 181.954C697.704 181.954 699.975 179.539 699.975 176.44C699.975 172.872 697.885 170.998 694.029 170.998C693.308 170.998 692.911 171.07 691.902 171.214ZM712.036 170.782V169.845C714.307 169.917 718.487 169.917 721.731 169.917C724.362 169.917 727.894 169.881 729.696 169.845V175.215L728.975 175.395C728.47 172.079 726.812 170.998 723.353 170.998H718.992V181.233H723.821C725.623 181.233 726.668 180.296 726.776 178.134H727.497C727.425 178.963 727.353 180.44 727.353 182.206C727.353 183.179 727.533 185.089 727.497 186.17H726.776C726.74 183.179 725.983 182.711 723.533 182.711H718.992V189.162C718.992 193.018 719.28 193.847 722.848 193.847H724.902C726.272 193.847 726.993 193.739 727.533 193.631C729.155 193.234 730.38 192.369 731.461 189.342L732.326 189.486C731.75 191.324 731.245 192.946 730.849 195C727.425 195 723.965 194.928 720.542 194.928C717.695 194.928 714.884 194.928 712.036 195V194.063C714.992 194.027 715.46 193.667 715.46 190.243V173.881C715.46 171.214 714.992 170.854 712.036 170.782ZM749.745 169.304C752.664 169.304 755.475 170.241 758.25 171.214L758.611 176.368H757.71C757.133 172.584 754.502 170.457 749.997 170.457C746.033 170.457 739.834 173.088 739.834 181.882C739.834 189.198 745.06 194.387 750.574 194.387C753.998 194.387 757.025 192.153 757.818 188.153L758.647 188.369L757.818 193.631C756.268 194.568 752.232 195.541 749.817 195.541C741.456 195.541 736.086 190.099 736.086 181.99C736.086 174.674 742.573 169.304 749.745 169.304ZM762.023 170.782V169.845C763.753 169.881 765.482 169.917 767.248 169.917C768.87 169.917 770.492 169.881 772.114 169.845V170.782C770.059 170.782 768.834 170.962 768.834 173.377V181.233H783.394V173.305C783.394 170.89 781.988 170.782 780.114 170.782V169.845C781.844 169.881 783.538 169.917 785.268 169.917C786.926 169.917 788.583 169.845 790.205 169.845V170.782C788.187 170.782 786.926 170.962 786.926 173.341V191.54C786.926 193.883 788.223 194.063 790.205 194.063V195C788.511 194.964 786.817 194.928 785.124 194.928C783.43 194.928 781.772 194.964 780.114 195V194.063C782.205 194.063 783.394 193.811 783.394 191.54V182.711H768.834V191.432C768.834 193.667 769.735 194.063 772.114 194.063V195C770.348 195 768.618 194.928 766.852 194.928C765.23 194.928 763.608 194.964 762.023 195V194.063C764.329 194.063 765.302 193.703 765.302 191.468V173.305C765.302 170.71 763.68 170.854 762.023 170.782ZM792.799 174.566L793.196 168.836H793.917C794.277 169.809 795.394 169.845 796.079 169.845H812.657C813.702 169.845 814.747 169.557 814.891 168.836H815.648L815.324 174.566H814.351C814.207 172.872 814.567 171.322 811.432 171.322H805.99V191.54C805.99 193.991 807.431 194.027 809.269 194.063V195C807.539 195 805.773 194.928 804.008 194.928C802.386 194.928 800.8 194.964 799.178 195V194.063C800.692 193.991 802.458 194.207 802.458 191.576V171.322H797.773C794.746 171.322 794.349 171.971 793.736 174.566H792.799ZM818.604 170.782V169.845C820.334 169.881 820.874 169.917 822.28 169.917C824.947 169.917 825.74 169.845 827.325 169.845C831.758 169.845 835.794 171.467 835.794 175.683C835.794 178.422 833.704 180.512 829.992 181.413V181.485C832.695 181.341 838.101 183.179 838.101 188.153C838.101 191.937 835.038 195 828.298 195C826.496 195 824.73 194.928 822.929 194.928C821.487 194.928 820.045 194.964 818.604 195V194.063C821.163 194.207 821.883 193.09 821.883 191.684V173.341C821.883 171.142 820.874 170.782 818.604 170.782ZM825.415 171.07V181.233H826.857C830.857 181.233 832.263 179.179 832.263 175.755C832.263 172.62 830.965 170.998 827.073 170.998C826.388 170.998 825.92 171.034 825.415 171.07ZM825.415 182.386V191.036C825.415 192.694 825.595 193.847 828.659 193.847C832.731 193.847 834.353 191.18 834.353 188.657C834.353 184.441 832.191 182.386 827.686 182.386H825.415ZM841.356 170.782V169.845C843.014 169.881 844.636 169.917 846.294 169.917C848.023 169.917 849.753 169.881 851.447 169.845V170.782C849.213 170.782 848.168 171.07 848.168 173.413V191.324C848.168 193.414 848.78 194.099 851.447 194.063V195C849.753 195 848.096 194.928 846.402 194.928C844.708 194.928 843.014 194.964 841.356 195V194.063C843.699 194.063 844.636 193.703 844.636 191.396V173.449C844.636 171.322 843.879 170.746 841.356 170.782ZM856.458 170.782V169.845C858.116 169.881 859.773 169.917 861.395 169.917C863.125 169.917 864.855 169.881 866.549 169.845V170.782C864.242 170.782 863.269 171.142 863.269 173.413V192.153C863.269 196.369 862.692 197.883 861.611 199.685C860.494 201.559 858.116 202.676 855.989 202.676C853.683 202.676 852.277 201.703 852.277 200.262C852.277 199.217 853.034 198.676 853.683 198.676C854.512 198.676 854.944 199.217 854.944 199.973C854.944 200.766 855.629 201.523 856.89 201.523C858.8 201.523 859.737 199.577 859.737 194.928V173.305C859.737 170.89 858.368 170.818 856.458 170.782ZM878.646 169.304C880.051 169.304 881.637 169.629 883.043 169.845L883.619 174.458H882.79C882.394 171.899 880.7 170.457 878.141 170.457C875.402 170.457 873.817 172.44 873.817 175.07C873.817 181.81 884.917 179.9 884.917 188.225C884.917 192.874 880.772 195.541 876.447 195.541C874.646 195.541 872.699 195.144 870.934 194.315L870.213 189.054H871.042C871.762 192.117 873.925 194.387 876.664 194.387C879.475 194.387 881.601 192.405 881.601 189.594C881.601 182.891 870.934 184.873 870.934 176.368C870.934 171.935 873.997 169.304 878.646 169.304ZM888.232 174.566L888.629 168.836H889.349C889.71 169.809 890.827 169.845 891.512 169.845H908.09C909.135 169.845 910.18 169.557 910.324 168.836H911.081L910.757 174.566H909.783C909.639 172.872 910 171.322 906.864 171.322H901.422V191.54C901.422 193.991 902.864 194.027 904.702 194.063V195C902.972 195 901.206 194.928 899.44 194.928C897.819 194.928 896.233 194.964 894.611 195V194.063C896.125 193.991 897.891 194.207 897.891 191.576V171.322H893.206C890.178 171.322 889.782 171.971 889.169 174.566H888.232ZM923.075 168.836H923.687C926.138 175.647 928.877 183.035 931.255 189.81C931.688 191.036 932.301 192.694 932.625 193.09C933.165 193.739 933.994 194.063 935.4 194.063V195C933.958 195 932.625 194.928 930.463 194.928C929.67 194.928 927.471 194.964 925.994 195V194.063H926.534C927.724 194.063 928.625 193.811 928.625 192.874C928.625 192.081 927.94 190.459 926.282 185.558H917.813C916.588 189.378 916.047 191.18 916.047 192.369C916.047 193.991 917.092 194.063 918.462 194.063H919.327V195C917.885 195 916.479 194.928 915.074 194.928C913.632 194.928 912.155 194.964 910.713 195V194.063C912.984 193.811 913.308 193.486 914.209 191.504C914.641 190.567 915.11 189.126 915.687 187.468L920.191 174.89C920.804 173.124 921.056 172.332 921.056 171.142C921.056 170.71 921.02 170.566 920.984 170.421C921.885 169.989 922.534 169.665 923.075 168.836ZM921.813 173.485L918.317 184.08H925.741L921.885 173.485H921.813ZM937.66 170.782V169.845C938.669 169.881 939.714 169.917 940.723 169.917C941.912 169.917 942.849 169.845 943.93 169.845C945.408 172.043 948.832 175.431 952.616 179.575C954.526 181.702 956.148 183.468 957.517 184.909L961.77 189.486V174.962C961.77 171.683 960.797 170.818 957.409 170.782V169.845C958.959 169.881 960.508 169.917 962.094 169.917C963.572 169.917 965.085 169.845 966.599 169.845V170.782C964.4 170.746 963.211 171.034 963.211 174.458V195.324H962.382L943.534 174.638V188.261C943.534 192.91 943.894 194.099 947.823 194.063V195C946.057 195 944.723 194.928 942.417 194.928C941.011 194.928 939.642 194.964 938.236 195V194.063C940.543 194.063 942.092 194.027 942.092 189.306V174.926C942.092 172.151 940.939 170.746 937.66 170.782ZM969.266 170.782V169.845C970.708 169.917 972.185 169.917 973.699 169.917C974.996 169.917 977.627 169.845 979.645 169.845C989.304 169.845 994.169 176.26 994.169 182.458C994.169 186.783 991.43 195 979.393 195C977.591 195 975.609 194.928 973.879 194.928C972.329 194.928 970.78 194.964 969.266 195V194.063C971.428 193.847 972.582 193.775 972.582 191.324V173.953C972.582 171.719 971.969 170.782 969.879 170.782H969.266ZM976.113 171.142V190.747C976.113 193.522 978.096 193.847 979.898 193.847C987.069 193.847 990.205 188.693 990.205 182.603C990.205 175.827 985.844 170.998 978.925 170.998C977.519 170.998 976.834 171.106 976.113 171.142Z" fill="black"/>
<path d="M79.9351 94.9842V93.0491C83.5077 93.1235 87.0802 93.1979 90.7272 93.1979C94.0765 93.1979 97.4258 93.1235 100.775 93.0491V94.9842C96.5326 94.9842 94.0021 95.3564 94.0021 100.343V116.568H124.071V100.194C124.071 95.2075 121.168 94.9842 117.298 94.9842V93.0491C120.871 93.1235 124.369 93.1979 127.941 93.1979C131.365 93.1979 134.789 93.0491 138.138 93.0491V94.9842C133.97 94.9842 131.365 95.3564 131.365 100.269V137.855C131.365 142.693 134.044 143.065 138.138 143.065V145C134.64 144.926 131.142 144.851 127.644 144.851C124.146 144.851 120.722 144.926 117.298 145V143.065C121.615 143.065 124.071 142.544 124.071 137.855V119.62H94.0021V137.632C94.0021 142.246 95.8628 143.065 100.775 143.065V145C97.1281 145 93.5555 144.851 89.9085 144.851C86.5592 144.851 83.21 144.926 79.9351 145V143.065C84.6985 143.065 86.7081 142.321 86.7081 137.706V100.194C86.7081 94.8354 83.3588 95.1331 79.9351 94.9842ZM148.482 94.9842V93.0491C151.906 93.1235 155.33 93.1979 158.679 93.1979C162.252 93.1979 165.824 93.1235 169.322 93.0491V94.9842C164.559 94.9842 162.549 95.7285 162.549 100.417V139.12C162.549 147.828 161.358 150.954 159.126 154.676C156.818 158.546 151.906 160.853 147.515 160.853C142.751 160.853 139.849 158.844 139.849 155.867C139.849 153.708 141.412 152.592 142.751 152.592C144.463 152.592 145.356 153.708 145.356 155.271C145.356 156.909 146.771 158.472 149.376 158.472C153.32 158.472 155.255 154.452 155.255 144.851V100.194C155.255 95.2075 152.427 95.0586 148.482 94.9842Z" fill="#1F4E63"/>
<path d="M232.503 62.9326V187.066L125 249.134L17.4971 187.066V62.9326L125 0.865234L232.503 62.9326Z" stroke="#1F4E63" stroke-width="1.5" stroke-linejoin="round"/>
</svg>
